# xmcd CD database file
#
# Track frame offsets:
#	150
#	15279
#	29598
#	45685
#	62377
#	74856
#	91855
#	107232
#	124367
#	144561
#	160739
#	186528
#
# Disc length: 2773 seconds
#
# Revision: 0
# Processed by: cddbd v1.5.1PL0 Copyright (c) Steve Scherf et al.
# Submitted via: CDex 1.51
#
DISCID=ab0ad30c
DTITLE=Mr. Big - Seppuku
DYEAR=2003
DGENRE=Rock
TTITLE0=Senora
TTITLE1=Woman
TTITLE2=Place Your Bets
TTITLE3=Here It Comes Again
TTITLE4=Tonight
TTITLE5=Lucy
TTITLE6=Goosestep
TTITLE7=You Won't See Me
TTITLE8=Behind Enemy Lines
TTITLE9=Come Rock With Me
TTITLE10=Seppuku
TTITLE11=Death Boy
EXTD=YEAR: 2003
EXTT0=
EXTT1=
EXTT2=
EXTT3=
EXTT4=
EXTT5=
EXTT6=
EXTT7=
EXTT8=
EXTT9=
EXTT10=
EXTT11=
PLAYORDER=
